<svg xmlns="http://www.w3.org/2000/svg" viewBox="0 0 120 160" width="432" height="576" role="img" aria-label="Guinness Draught"><defs><filter id="guinness-wobble" x="-5%" y="-5%" width="110%" height="110%"><feTurbulence type="fractalNoise" baseFrequency="0.04" numOctaves="2"></feTurbulence><feDisplacementMap in="SourceGraphic" scale="2.5"></feDisplacementMap></filter></defs><g filter="url(#guinness-wobble)" fill="none" stroke="#e5e5e5" stroke-width="2.5" stroke-linecap="round" stroke-linejoin="round"><path d="M 38 34 L 38 132 Q 38 142 48 142 L 72 142 Q 82 142 82 132 L 82 34 Z" fill="#161616"></path><path d="M 70 34 L 82 34 L 82 132 Q 82 142 72 142 L 70 142 Z" fill="#000000" stroke="none"></path><ellipse cx="60" cy="34" rx="22" ry="6" fill="#c9ced6"></ellipse><ellipse cx="60" cy="32" rx="14" ry="3.5" fill="#e8eaee"></ellipse><path d="M 38 42 L 82 42" stroke="#d9a521" stroke-width="2.5"></path><path d="M 40 134 L 80 134" stroke="#d9a521" stroke-width="2"></path><text x="60" y="58" text-anchor="middle" fill="#f6f1e2" font-size="10" font-weight="800" stroke="none" class="font-hand">GUINNESS</text><path d="M 52 66 L 52 106" stroke="#d9a521" stroke-width="3"></path><path d="M 52 66 Q 74 68 72 94" fill="none" stroke="#d9a521" stroke-width="3"></path><path d="M 57 71 L 57 99 M 61 72 L 61 98 M 65 74 L 65 96" stroke="#d9a521" stroke-width="1.2"></path><path d="M 47 106 Q 60 113 73 104" fill="none" stroke="#d9a521" stroke-width="3"></path><text x="60" y="124" text-anchor="middle" fill="#d9a521" font-size="8" font-weight="800" stroke="none" class="font-hand">DRAUGHT</text><text x="60" y="131" text-anchor="middle" fill="#8f8f8f" font-size="5.5" font-weight="700" stroke="none" class="font-hand">440ml</text><path d="M 44 60 L 44 128" stroke="#ffffff" stroke-width="2" opacity="0.25"></path><path d="M 96 52 L 96 62 M 91 57 L 101 57" stroke-width="1.5"></path><path d="M 24 108 L 24 116 M 20 112 L 28 112" stroke-width="1.5"></path></g><text x="60" y="153" text-anchor="middle" fill="#0a0a0a" opacity="0.8" font-size="8.5" font-weight="700" stroke="none" class="font-hand">世濤</text></svg>
