<svg xmlns="http://www.w3.org/2000/svg" viewBox="0 0 120 160" width="432" height="576" role="img" aria-label="Moutai Flying Fairy"><defs><filter id="moutai-wobble" x="-5%" y="-5%" width="110%" height="110%"><feTurbulence type="fractalNoise" baseFrequency="0.04" numOctaves="2"></feTurbulence><feDisplacementMap in="SourceGraphic" scale="2.5"></feDisplacementMap></filter></defs><g filter="url(#moutai-wobble)" fill="none" stroke="#e5e5e5" stroke-width="2.5" stroke-linecap="round" stroke-linejoin="round"><path d="M 50 12 L 70 12 L 70 34 L 50 34 Z" fill="#c8102e"></path><path d="M 50 19 L 70 19 M 50 26 L 70 26" stroke="#8f0b20" stroke-width="1.4"></path><path d="M 52 34 L 52 50 Q 52 56 40 60 Q 32 63 32 72 L 32 132 Q 32 144 44 144 L 76 144 Q 88 144 88 132 L 88 72 Q 88 63 80 60 Q 68 56 68 50 L 68 34 Z" fill="#f8f4ea"></path><path d="M 34 74 L 86 74 L 86 136 L 34 136 Z" fill="#c8102e" stroke="none"></path><g transform="rotate(-16 60 105)"><rect x="30" y="96" width="60" height="22" fill="#fffdf5" stroke="none"></rect><path d="M 30 99 L 90 99 M 30 115 L 90 115" stroke="#333333" stroke-width="0.8"></path></g><circle cx="46" cy="86" r="8" fill="none" stroke="#d9a521" stroke-width="1.8"></circle><circle cx="46" cy="86" r="6" fill="#f6f1e2" stroke="none"></circle><path d="M 42 86 Q 46 82 50 85 M 43 88 Q 47 90 50 87" stroke="#c8102e" stroke-width="1.4"></path><circle cx="46" cy="84" r="1.2" fill="#1c4f9c" stroke="none"></circle><text x="60" y="105" text-anchor="middle" fill="#1a1a1a" font-size="6.5" font-weight="800" stroke="none" class="font-hand" transform="rotate(-16 60 105)">KWEICHOW MOUTAI</text><text x="60" y="112" text-anchor="middle" fill="#c8102e" font-size="13" font-weight="800" stroke="none" class="font-hand" transform="rotate(-16 60 105)">贵州茅台酒</text><text x="60" y="131" text-anchor="middle" fill="#fffdf5" font-size="5.5" font-weight="700" stroke="none" class="font-hand">MOUTAI DISTILLERY</text><path d="M 98 60 L 98 70 M 93 65 L 103 65" stroke-width="1.5"></path><path d="M 22 108 L 22 116 M 18 112 L 26 112" stroke-width="1.5"></path></g><text x="60" y="153" text-anchor="middle" fill="#0a0a0a" opacity="0.8" font-size="8.5" font-weight="700" stroke="none" class="font-hand">醬香白酒</text></svg>
