<svg xmlns="http://www.w3.org/2000/svg" viewBox="0 0 120 160" width="432" height="576" role="img" aria-label="Poker"><defs><filter id="poker-wobble" x="-5%" y="-5%" width="110%" height="110%"><feTurbulence type="fractalNoise" baseFrequency="0.04" numOctaves="2"></feTurbulence><feDisplacementMap in="SourceGraphic" scale="2.5"></feDisplacementMap></filter></defs><g filter="url(#poker-wobble)" fill="none" stroke="#e5e5e5" stroke-width="2.5" stroke-linecap="round" stroke-linejoin="round"><path d="M 52 16 L 68 16 L 68 26 L 52 26 Z" fill="#0b5c2c"></path><path d="M 53 26 L 53 58 Q 53 66 46 70 L 42 74 L 42 134 Q 42 144 52 144 L 68 144 Q 78 144 78 134 L 78 74 L 74 70 Q 67 66 67 58 L 67 26 Z" fill="#12803f"></path><path d="M 61 72 L 74 70 Q 78 74 78 78 L 78 134 Q 78 144 68 144 L 61 144 Z" fill="#0b5c2c" stroke="none" opacity="0.9"></path><path d="M 42 76 L 78 76 L 78 136 L 42 136 Z" fill="#0e6b34" stroke="none"></path><path d="M 42 79 L 78 79 M 42 133 L 78 133" stroke="#c8102e" stroke-width="1.6"></path><path d="M 50 90 Q 47 86 50 84 Q 53 86 50 90 Q 47 94 50 96 Q 53 94 50 90 Z" fill="#ffffff" stroke="none"></path><path d="M 58 88 L 62 88 L 60 93 Z" fill="#ffffff" stroke="none"></path><circle cx="66" cy="88" r="2.4" fill="#c8102e" stroke="none"></circle><path d="M 70 88 L 74 88 L 72 93 Z" fill="#ffffff" stroke="none"></path><text x="60" y="110" text-anchor="middle" fill="#ffffff" font-size="11" font-weight="800" stroke="none" class="font-hand">POKER</text><path d="M 48 115 L 72 115" stroke="#c8102e" stroke-width="1.8"></path><text x="60" y="126" text-anchor="middle" fill="#f6f1e2" font-size="5.5" font-weight="700" stroke="none" class="font-hand">CERVEZA · PILSEN</text><path d="M 47 78 L 47 88" stroke="#ffffff" stroke-width="2" opacity="0.6"></path><path d="M 94 60 L 94 70 M 89 65 L 99 65" stroke-width="1.5"></path><path d="M 24 108 L 24 116 M 20 112 L 28 112" stroke-width="1.5"></path></g><text x="60" y="153" text-anchor="middle" fill="#0a0a0a" opacity="0.8" font-size="8.5" font-weight="700" stroke="none" class="font-hand">淡拉格</text></svg>
