<svg xmlns="http://www.w3.org/2000/svg" viewBox="0 0 120 160" width="432" height="576" role="img" aria-label="Snow"><defs><filter id="snow-wobble" x="-5%" y="-5%" width="110%" height="110%"><feTurbulence type="fractalNoise" baseFrequency="0.04" numOctaves="2"></feTurbulence><feDisplacementMap in="SourceGraphic" scale="2.5"></feDisplacementMap></filter></defs><g filter="url(#snow-wobble)" fill="none" stroke="#e5e5e5" stroke-width="2.5" stroke-linecap="round" stroke-linejoin="round"><path d="M 52 16 L 68 16 L 68 26 L 52 26 Z" fill="#8a8f96"></path><path d="M 53 26 L 53 58 Q 53 66 46 70 L 42 74 L 42 134 Q 42 144 52 144 L 68 144 Q 78 144 78 134 L 78 74 L 74 70 Q 67 66 67 58 L 67 26 Z" fill="#8a4d1c"></path><path d="M 61 72 L 74 70 Q 78 74 78 78 L 78 134 Q 78 144 68 144 L 61 144 Z" fill="#5e320e" stroke="none" opacity="0.9"></path><path d="M 53 32 L 67 32 L 67 52 L 53 52 Z" fill="#1c5fb8" stroke="none"></path><text x="60" y="45" text-anchor="middle" fill="#ffffff" font-size="7" font-weight="800" stroke="none" class="font-hand" transform="rotate(90 60 42)">雪花</text><path d="M 42 86 L 78 86 L 78 128 L 42 128 Z" fill="#1c5fb8"></path><path d="M 48 94 L 48 102 M 44 96 L 52 96 M 45 98 L 51 98" stroke="#ffffff" stroke-width="1.4"></path><circle cx="48" cy="98" r="4.5" fill="none" stroke="#ffffff" stroke-width="1.2"></circle><text x="62" y="104" text-anchor="middle" fill="#ffffff" font-size="13" font-weight="800" stroke="none" class="font-hand">雪花</text><text x="62" y="114" text-anchor="middle" fill="#ffffff" font-size="7" font-weight="800" stroke="none" class="font-hand">SNOW 勇闯天涯</text><circle cx="71" cy="92" r="1.8" fill="#ffffff" stroke="none"></circle><path d="M 71 94 L 71 98 M 71 95 L 68 97 M 71 95 L 74 97" stroke="#ffffff" stroke-width="1.2"></path><path d="M 47 76 L 47 84" stroke="#ffffff" stroke-width="2.5" opacity="0.6"></path><path d="M 94 60 L 94 70 M 89 65 L 99 65" stroke-width="1.5"></path><path d="M 24 108 L 24 116 M 20 112 L 28 112" stroke-width="1.5"></path></g><text x="60" y="153" text-anchor="middle" fill="#0a0a0a" opacity="0.8" font-size="8.5" font-weight="700" stroke="none" class="font-hand">淡拉格</text></svg>
